<?xml version="1.0" encoding="UTF-8" standalone="no"?>
<!-- Created with Inkscape (http://www.inkscape.org/) -->

<svg
   width="1949"
   height="552"
   viewBox="0 0 1949 552"
   version="1.1"
   id="svg1"
   xml:space="preserve"
   inkscape:version="1.3.2 (091e20e, 2023-11-25)"
   sodipodi:docname="final.svg"
   xmlns:inkscape="http://www.inkscape.org/namespaces/inkscape"
   xmlns:sodipodi="http://sodipodi.sourceforge.net/DTD/sodipodi-0.dtd"
   xmlns="http://www.w3.org/2000/svg"
   xmlns:svg="http://www.w3.org/2000/svg"
   xmlns:rdf="http://www.w3.org/1999/02/22-rdf-syntax-ns#"
   xmlns:cc="http://creativecommons.org/ns#"
   xmlns:dc="http://purl.org/dc/elements/1.1/"><defs
     id="defs1" /><sodipodi:namedview
     id="base"
     pagecolor="#ffffff"
     bordercolor="#000000"
     borderopacity="0.3"
     inkscape:pageopacity="0.0"
     inkscape:pageshadow="2"
     inkscape:zoom="0.29366422"
     inkscape:cx="972.19879"
     inkscape:cy="192.39661"
     inkscape:document-units="mm"
     inkscape:showpageshadow="2"
     inkscape:pagecheckerboard="0"
     inkscape:deskcolor="#d1d1d1"
     inkscape:window-width="1664"
     inkscape:window-height="1040"
     inkscape:window-x="0"
     inkscape:window-y="39"
     inkscape:window-maximized="0"
     inkscape:current-layer="svg1" /><metadata
     id="metadata1"><rdf:RDF><cc:Work
         rdf:about=""><dc:format>image/svg+xml</dc:format><dc:type
           rdf:resource="http://purl.org/dc/dcmitype/StillImage" /></cc:Work></rdf:RDF></metadata><path
     id="logotype"
     fill="#4a4a55"
     d="M 42.184963,257.98527 A 46.846286,46.912705 0 0 1 15.537739,250.45823 38.84435,38.899423 0 0 1 0,229.82209 l 16.217516,-5.97106 a 29.948993,29.991455 0 0 0 10.604508,12.8368 27.851398,27.890885 0 0 0 16.042714,4.72629 23.539676,23.57305 0 0 0 15.304681,-4.62904 16.100983,16.123811 0 0 0 5.826651,-13.2647 14.683164,14.703982 0 0 0 -1.573194,-6.71015 20.082528,20.111001 0 0 0 -3.612525,-5.05692 23.85043,23.884245 0 0 0 -6.117986,-4.06499 q -4.136929,-2.06167 -6.875457,-3.15086 c -1.806259,-0.71964 -4.48652,-1.69212 -8.021356,-2.89801 -4.408833,-1.55597 -7.768872,-2.76185 -9.924733,-3.65654 a 73.51293,73.617156 0 0 1 -8.701133,-4.37618 32.007742,32.053125 0 0 1 -8.099047,-6.14611 29.502281,29.544111 0 0 1 -4.9720762,-8.07163 28.744817,28.785574 0 0 1 7.7688702,-32.65607 Q 23.85043,138 40.864256,138 c 9.497442,0 17.28574,2.10057 23.423146,6.28226 a 30.453969,30.497148 0 0 1 12.333083,16.7462 l -15.867918,5.30977 a 18.528754,18.555025 0 0 0 -7.76887,-8.53842 25.753803,25.790317 0 0 0 -13.478995,-3.22866 20.781727,20.811191 0 0 0 -12.993434,3.6371 12.216548,12.233868 0 0 0 -4.603055,10.2889 10.72104,10.736241 0 0 0 3.631947,7.95493 25.248827,25.284625 0 0 0 7.613493,5.13472 c 2.660837,1.10864 6.681228,2.58681 12.100013,4.47344 3.30177,1.22533 5.826651,2.12002 7.361009,2.74241 1.534356,0.62239 3.884438,1.61432 7.03083,3.0536 a 49.681923,49.752361 0 0 1 7.108515,3.88994 63.840688,63.931202 0 0 1 5.826651,4.72628 25.423626,25.459672 0 0 1 4.952658,6.14611 35.057025,35.106729 0 0 1 2.97159,7.46869 33.833428,33.881396 0 0 1 1.243021,9.35531 q 0,16.25996 -11.090065,25.44022 -11.090059,9.18027 -28.472912,9.10247 z M 148.26889,256.0403 108.55055,139.98387 h 18.54817 l 26.31705,80.8719 a 127.91444,128.0958 0 0 1 3.63194,13.2647 123.79694,123.97246 0 0 1 3.65138,-13.2647 l 25.96744,-80.8719 h 18.37339 L 165.49636,256.0014 Z m 91.86689,0 V 139.98387 h 71.86204 v 16.24051 h -54.65399 v 31.81973 h 35.25125 v 16.24051 h -35.25125 v 35.39847 h 58.2665 v 16.24051 z m 119.32984,0 V 139.98387 h 17.20805 v 99.44637 h 56.61564 V 256.0014 Z M 498.15937,156.59392 V 256.0014 H 480.95132 V 156.55503 H 448.1667 v -16.57116 h 82.75787 v 16.57116 z m 68.34665,99.40748 V 139.98387 h 71.86205 v 16.24051 h -54.63458 v 31.81973 h 35.25123 v 16.24051 h -35.25123 v 35.39847 H 642 v 16.24051 z"
     style="stroke-width:1.9436" /><path
     style="font-size:18.6667px;font-family:Overpass;-inkscape-font-specification:Overpass;fill:#565656;stroke-width:2.76218"
     d="m 12.93093,329.84595 q -3.4030291,0 -5.8521594,-1.64988 Q 4.6296123,326.52028 3.3148071,323.45229 2,320.35868 2,316.07926 q 0,-4.30551 1.3405773,-7.39912 1.3406044,-3.09379 3.8155343,-4.74367 2.5007016,-1.67576 5.9810704,-1.67576 3.403028,0 5.774817,1.5728 2.371818,1.57253 3.454599,4.56316 l -4.228014,1.54689 q -0.644505,-1.70158 -1.933538,-2.60391 -1.263238,-0.90251 -3.016321,-0.90251 -3.1967746,0 -4.8982881,2.47505 -1.7015153,2.47484 -1.7015153,7.16707 0,4.58881 1.6757435,7.06366 1.6757158,2.47503 4.7693759,2.47503 1.98511,0 3.377257,-1.03111 1.41792,-1.0313 1.985108,-2.88738 l 4.176444,1.39218 q -0.953896,3.24832 -3.480368,5.00116 -2.5265,1.75315 -6.161552,1.75315 z m 19.928288,9.38398 4.021755,-10.67306 -9.745025,-25.67741 h 4.485806 l 6.548262,17.9433 q 0.283567,0.69607 0.46405,1.26342 0.180316,0.56704 0.360913,1.26314 0.206409,-0.6961 0.386705,-1.26314 0.180316,-0.56735 0.438268,-1.26342 l 6.651387,-17.9433 h 4.588917 l -13.663654,36.35047 z m 35.396601,-9.38398 q -1.959315,0 -3.5577,-0.69611 -1.598405,-0.69594 -3.19678,-2.19112 v 2.26846 H 57.015533 V 294.11422 L 61.501339,292 v 13.14837 q 1.237463,-1.36642 2.964745,-2.11422 1.753094,-0.77344 3.635049,-0.77344 3.351468,0 5.800628,1.67576 2.449119,1.67597 3.789723,4.76957 1.340588,3.09361 1.340588,7.3215 0,6.57396 -2.835866,10.209 -2.835841,3.60941 -7.940387,3.60941 z m -0.618724,-4.17647 q 3.299904,0 5.052971,-2.5005 1.753075,-2.50091 1.753075,-7.14144 0,-4.71785 -1.753075,-7.16681 -1.727284,-2.47487 -5.052971,-2.47487 -1.778859,0 -3.506141,1.00532 -1.727325,0.97959 -2.629615,2.50066 v 12.21997 q 0.979635,1.62424 2.603804,2.6039 1.649982,0.95377 3.531952,0.95377 z m 29.338245,4.17647 q -3.609256,0 -6.238871,-1.77878 -2.629618,-1.77893 -4.047538,-4.89819 -1.417948,-3.11967 -1.417948,-7.14144 0,-4.35676 1.469497,-7.42474 1.469483,-3.09379 4.0991,-4.71785 2.629618,-1.62424 6.13576,-1.62424 2.964776,0 5.4397,1.34076 2.47492,1.31487 3.94441,4.09909 1.49527,2.75833 1.49527,7.08949 0,0.61875 -0.0517,1.4439 -0.0248,0.79907 -0.10297,1.6497 H 89.859932 q 0.25766,2.39769 1.185888,4.20253 0.928101,1.80455 2.449161,2.83567 1.521032,1.00548 3.583485,1.00548 1.675707,0 3.093644,-0.59285 1.4437,-0.59311 2.68118,-1.83047 l 2.6296,2.93892 q -1.46949,1.46956 -3.66081,2.44922 -2.165574,0.9538 -4.846751,0.9538 z m -7.166973,-15.88064 h 13.508963 q 0,-2.24297 -0.7476,-3.99612 -0.72188,-1.77893 -2.1398,-2.78422 -1.417921,-1.00549 -3.45459,-1.00549 -2.861651,0 -4.924062,1.85609 -2.036661,1.85627 -2.242911,5.92974 z m 25.264913,15.26187 v -26.34772 h 4.48582 v 3.45471 q 0.90228,-2.01096 2.47492,-3.04208 1.59837,-1.03138 3.76393,-1.03138 2.3976,0 4.07334,1.34076 l -0.67031,4.22789 q -0.85075,-0.59287 -1.77886,-0.8508 -0.90229,-0.28348 -1.98511,-0.28348 -1.77881,0 -3.09363,0.95395 -1.3148,0.95377 -2.06244,2.68126 -0.72184,1.72722 -0.72184,4.04737 v 14.84952 z m 19.79947,0 v -26.34772 h 4.48577 v 2.68127 q 1.2117,-1.67578 2.91322,-2.47488 1.70151,-0.82514 3.89284,-0.82514 4.79517,0 7.11543,2.91328 2.32024,2.8874 2.32024,8.89429 v 15.1589 h -4.48581 v -15.93232 q 0,-3.32567 -1.49526,-5.1046 -1.46948,-1.8044 -4.17645,-1.8044 -3.01632,0 -4.56315,1.72705 -1.52106,1.70159 -1.52106,5.07895 v 16.03532 z m 39.95972,0.61877 q -3.60929,0 -6.2389,-1.77878 -2.62962,-1.77893 -4.04753,-4.89819 -1.4179,-3.11967 -1.4179,-7.14144 0,-4.35676 1.46947,-7.42474 1.4695,-3.09379 4.0991,-4.71785 2.62962,-1.62424 6.13576,-1.62424 2.96474,0 5.43967,1.34076 2.47493,1.31487 3.94443,4.09909 1.49525,2.75833 1.49525,7.08949 0,0.61875 -0.0517,1.4439 -0.0248,0.79907 -0.10297,1.6497 h -17.8401 q 0.25767,2.39769 1.18589,4.20253 0.92811,1.80455 2.44917,2.83567 1.52105,1.00548 3.58348,1.00548 1.67575,0 3.09367,-0.59285 1.44371,-0.59311 2.68117,-1.83047 l 2.62961,2.93892 q -1.46948,1.46956 -3.66084,2.44922 -2.16557,0.9538 -4.84671,0.9538 z m -7.16701,-15.88064 h 13.50902 q 0,-2.24297 -0.74765,-3.99612 -0.72184,-1.77893 -2.13979,-2.78422 -1.41793,-1.00549 -3.45457,-1.00549 -2.86164,0 -4.92409,1.85609 -2.03664,1.85627 -2.24292,5.92974 z m 31.55533,15.88064 q -2.70695,0 -4.15064,-1.62409 -1.41794,-1.62424 -1.41794,-4.66632 v -16.7573 h -4.27956 v -3.91878 h 4.27956 V 294.1655 L 198.13801,292 v 10.87946 h 6.49668 v 3.91878 h -6.49668 v 15.26185 q 0,1.88217 0.64453,2.75862 0.67028,0.85077 2.08818,0.85077 1.80466,0 3.91865,-1.39201 l -0.51561,4.38268 q -1.16012,0.61873 -2.42335,0.9022 -1.23748,0.2836 -2.62962,0.2836 z m 11.18875,-0.61877 v -26.34772 h 4.48578 v 26.34772 z m 2.2171,-31.14291 q -1.16012,0 -1.98511,-0.7991 -0.79917,-0.82498 -0.79917,-1.98515 0,-1.2117 0.79917,-2.0366 0.82499,-0.8508 1.98511,-0.8508 1.21169,0 2.01088,0.8508 0.825,0.8249 0.825,2.0366 0,1.16017 -0.825,1.98515 -0.79919,0.7991 -2.01088,0.7991 z m 20.21189,31.76168 q -3.40302,0 -5.85218,-1.64988 -2.44913,-1.67579 -3.76394,-4.74378 -1.31481,-3.09361 -1.31481,-7.37303 0,-4.30551 1.34058,-7.39912 1.3406,-3.09379 3.81552,-4.74367 2.50071,-1.67576 5.98108,-1.67576 3.40304,0 5.77482,1.5728 2.37181,1.57253 3.4546,4.56316 l -4.22801,1.54689 q -0.64452,-1.70158 -1.93356,-2.60391 -1.26323,-0.90251 -3.01627,-0.90251 -3.19681,0 -4.89833,2.47505 -1.70151,2.47484 -1.70151,7.16707 0,4.58881 1.67574,7.06366 1.67571,2.47503 4.76941,2.47503 1.98508,0 3.37723,-1.03111 1.41793,-1.0313 1.9851,-2.88738 l 4.17646,1.39218 q -0.9539,3.24832 -3.48038,5.00116 -2.52651,1.75315 -6.16155,1.75315 z m 23.51181,0 q -4.27956,0 -6.72873,-2.37191 -2.44915,-2.3716 -2.44915,-6.49659 0,-2.65535 1.21169,-4.61461 1.2117,-1.95953 3.4288,-3.01629 2.21713,-1.08283 5.20766,-1.08283 1.93356,0 3.60928,0.43817 1.70152,0.41263 3.19675,1.26342 v -1.85628 q 0,-3.06797 -1.39209,-4.48582 -1.39216,-1.44373 -4.33117,-1.44373 -1.88197,0 -3.91861,0.69611 -2.01088,0.6961 -3.76397,1.93342 l -1.289,-3.76391 q 1.98508,-1.31484 4.51157,-2.0366 2.55228,-0.74779 5.02721,-0.74779 4.69204,0 7.03805,2.39766 2.34605,2.37191 2.34605,7.08976 v 17.47905 h -4.22804 v -2.42315 q -1.54678,1.46939 -3.48032,2.26847 -1.93358,0.77345 -3.99598,0.77345 z m 0.67027,-3.91862 q 1.83042,0 3.60928,-0.90224 1.80466,-0.90231 3.19675,-2.55219 v -4.53753 q -1.31475,-0.825 -2.99049,-1.28908 -1.67576,-0.46406 -3.19682,-0.46406 -2.8874,0 -4.56312,1.31486 -1.67573,1.28907 -1.67573,3.53188 0,2.26864 1.49525,3.5835 1.49529,1.31486 4.12488,1.31486 z m 19.07753,3.29985 V 294.11422 L 280.584,292 v 37.22718 z m 13.50908,0 V 294.11422 L 294.09304,292 v 37.22718 z m 16.37056,10.00275 4.02179,-10.67306 -9.74511,-25.67741 h 4.48583 l 6.54822,17.9433 q 0.28367,0.69607 0.46405,1.26342 0.17994,0.56704 0.36087,1.26314 0.20583,-0.6961 0.38672,-1.26314 0.17993,-0.56735 0.43833,-1.26342 l 6.65128,-17.9433 h 4.5891 l -13.66382,36.35047 z m 46.4307,-9.38398 q -3.60931,0 -6.23887,-1.77878 -2.62973,-1.77893 -4.04768,-4.89819 -1.41789,-3.11967 -1.41789,-7.14144 0,-4.35676 1.46951,-7.42474 1.4696,-3.09379 4.09911,-4.71785 2.62956,-1.62424 6.13582,-1.62424 2.96459,0 5.43967,1.34076 2.47484,1.31487 3.94439,4.09909 1.49527,2.75833 1.49527,7.08949 0,0.61875 -0.0515,1.4439 -0.0248,0.79907 -0.10279,1.6497 h -17.84018 q 0.25708,2.39769 1.18605,4.20253 0.928,1.80455 2.44916,2.83567 1.52098,1.00548 3.58339,1.00548 1.67566,0 3.09358,-0.59285 1.44383,-0.59311 2.6812,-1.83047 l 2.62971,2.93892 q -1.46957,1.46956 -3.66093,2.44922 -2.16546,0.9538 -4.84662,0.9538 z m -7.16702,-15.88064 h 13.5089 q 0,-2.24297 -0.74752,-3.99612 -0.72185,-1.77893 -2.13976,-2.78422 -1.41795,-1.00549 -3.4546,-1.00549 -2.86176,0 -4.92418,1.85609 -2.0367,1.85627 -2.24284,5.92974 z m 25.26479,15.26187 v -26.34772 h 4.48587 v 2.68127 q 1.21173,-1.67578 2.91317,-2.47488 1.70156,-0.82514 3.89293,-0.82514 4.7952,0 7.11539,2.91328 2.32018,2.8874 2.32018,8.89429 v 15.1589 h -4.48568 v -15.93232 q 0,-3.32567 -1.49527,-5.1046 -1.46952,-1.8044 -4.17643,-1.8044 -3.01643,0 -4.56319,1.72705 -1.5211,1.70159 -1.5211,5.07895 v 16.03532 z m 29.02896,0 V 294.0625 L 404.02104,292 v 13.61244 q 1.21162,-1.67597 2.9132,-2.50093 1.7273,-0.8508 3.89279,-0.8508 3.42886,0 5.4913,1.41811 2.08813,1.41783 3.01627,4.07319 0.92814,2.62954 0.92814,6.31627 v 15.1589 h -4.48582 v -15.93232 q 0,-3.09363 -1.39221,-5.00144 -1.36634,-1.90756 -4.27954,-1.90756 -3.01624,0 -4.56315,1.72705 -1.52098,1.70159 -1.52098,5.07895 v 16.03532 z m 36.9175,0.61877 q -4.27948,0 -6.72859,-2.37191 -2.44916,-2.3716 -2.44916,-6.49659 0,-2.65535 1.21164,-4.61461 1.21176,-1.95953 3.42886,-3.01629 2.21709,-1.08283 5.20765,-1.08283 1.93347,0 3.60932,0.43817 1.70143,0.41263 3.19669,1.26342 v -1.85628 q 0,-3.06797 -1.39205,-4.48582 -1.3922,-1.44373 -4.33113,-1.44373 -1.88201,0 -3.91868,0.69611 -2.01095,0.6961 -3.76399,1.93342 l -1.28899,-3.76391 q 1.9851,-1.31484 4.51156,-2.0366 2.55219,-0.74779 5.02722,-0.74779 4.69199,0 7.03805,2.39766 2.34606,2.37191 2.34606,7.08976 v 17.47905 h -4.22805 v -2.42315 q -1.54673,1.46939 -3.48036,2.26847 -1.9336,0.77345 -3.99605,0.77345 z m 0.6704,-3.91862 q 1.83039,0 3.60932,-0.90224 1.80464,-0.90231 3.19669,-2.55219 v -4.53753 q -1.3147,-0.825 -2.99056,-1.28908 -1.6757,-0.46406 -3.19668,-0.46406 -2.88751,0 -4.56316,1.31486 -1.67586,1.28907 -1.67586,3.53188 0,2.26864 1.49524,3.5835 1.49529,1.31486 4.12501,1.31486 z m 19.49009,3.29985 v -26.34772 h 4.48584 v 2.68127 q 1.21161,-1.67578 2.91321,-2.47488 1.70156,-0.82514 3.89274,-0.82514 4.79525,0 7.11557,2.91328 2.32019,2.8874 2.32019,8.89429 v 15.1589 h -4.48582 v -15.93232 q 0,-3.32567 -1.49533,-5.1046 -1.46936,-1.8044 -4.17643,-1.8044 -3.01623,0 -4.56313,1.72705 -1.521,1.70159 -1.521,5.07895 v 16.03532 z m 39.18623,0.61877 q -3.403,0 -5.85212,-1.64988 -2.44914,-1.67579 -3.76398,-4.74378 -1.31469,-3.09361 -1.31469,-7.37303 0,-4.30551 1.34057,-7.39912 1.34057,-3.09379 3.81543,-4.74367 2.50074,-1.67576 5.9811,-1.67576 3.40302,0 5.77475,1.5728 2.37182,1.57253 3.45463,4.56316 l -4.22789,1.54689 q -0.64463,-1.70158 -1.9336,-2.60391 -1.26322,-0.90251 -3.01628,-0.90251 -3.19686,0 -4.89827,2.47505 -1.7016,2.47484 -1.7016,7.16707 0,4.58881 1.67571,7.06366 1.6757,2.47503 4.76947,2.47503 1.98509,0 3.37729,-1.03111 1.41791,-1.0313 1.98505,-2.88738 l 4.17644,1.39218 q -0.95385,3.24832 -3.48033,5.00116 -2.52648,1.75315 -6.16168,1.75315 z m 26.96655,0 q -3.60932,0 -6.23905,-1.77878 -2.62955,-1.77893 -4.04749,-4.89819 -1.41789,-3.11967 -1.41789,-7.14144 0,-4.35676 1.46954,-7.42474 1.46935,-3.09379 4.09908,-4.71785 2.62954,-1.62424 6.13581,-1.62424 2.96461,0 5.43965,1.34076 2.47488,1.31487 3.94444,4.09909 1.49525,2.75833 1.49525,7.08949 0,0.61875 -0.0515,1.4439 -0.0248,0.79907 -0.10277,1.6497 h -17.84023 q 0.25708,2.39769 1.18591,4.20253 0.92813,1.80455 2.44916,2.83567 1.52113,1.00548 3.58354,1.00548 1.6757,0 3.09361,-0.59285 1.44383,-0.59311 2.68117,-1.83047 l 2.62974,2.93892 q -1.46955,1.46956 -3.66092,2.44922 -2.1655,0.9538 -4.84664,0.9538 z m -7.16699,-15.88064 h 13.50888 q 0,-2.24297 -0.74755,-3.99612 -0.722,-1.77893 -2.13991,-2.78422 -1.41796,-1.00549 -3.45443,-1.00549 -2.86176,0 -4.9242,1.85609 -2.03669,1.85627 -2.24279,5.92974 z m 35.00983,15.88064 q -5.02721,0 -7.96615,-3.7124 -2.91324,-3.73799 -2.91324,-10.10601 0,-4.22789 1.31489,-7.3215 1.34058,-3.0936 3.76382,-4.76957 2.4491,-1.67576 5.80068,-1.67576 3.86705,0 6.6513,2.47501 v -10.6215 L 561.74594,292 v 37.22718 h -4.48582 v -2.06252 q -2.60382,2.68129 -6.6513,2.68129 z m 0.61875,-4.17647 q 1.85612,0 3.42873,-0.92811 1.5985,-0.92798 2.60382,-2.62956 v -12.37465 q -1.00532,-1.5469 -2.60382,-2.44922 -1.59834,-0.90208 -3.42873,-0.90208 -3.32564,0 -5.1562,2.50051 -1.80465,2.50066 -1.80465,7.14117 0,2.86159 0.87669,5.02725 0.8765,2.16547 2.44914,3.40299 1.57261,1.2117 3.63502,1.2117 z m 35.55134,3.5577 -6.75456,-26.34772 h 4.43439 l 4.02175,17.68545 q 0.17993,0.72189 0.30938,1.44393 0.15431,0.69609 0.25709,1.34048 0.12868,-0.67048 0.30938,-1.36658 0.17993,-0.72173 0.36085,-1.41783 l 4.94985,-17.68545 h 3.7124 l 4.94986,17.68545 q 0.20583,0.77344 0.38672,1.49518 0.17993,0.6961 0.33512,1.3922 0.12868,-0.67001 0.25708,-1.3922 0.12867,-0.72174 0.30938,-1.49518 l 3.97027,-17.68545 h 4.43424 l -6.75456,26.34772 h -4.02171 l -4.79523,-15.62293 q -0.23146,-0.77346 -0.51552,-1.72725 -0.25708,-0.95404 -0.46406,-1.72749 -0.17993,0.77345 -0.43836,1.72749 -0.25709,0.95379 -0.48978,1.72725 l -4.74356,15.62293 z m 42.09947,0.61877 q -3.60925,0 -6.23881,-1.77878 -2.62959,-1.77893 -4.0475,-4.89819 -1.41794,-3.11967 -1.41794,-7.14144 0,-4.35676 1.46938,-7.42474 1.46956,-3.09379 4.09914,-4.71785 2.62969,-1.62424 6.13573,-1.62424 2.96484,0 5.43973,1.34076 2.47498,1.31487 3.94437,4.09909 1.49527,2.75833 1.49527,7.08949 0,0.61875 -0.0515,1.4439 -0.0248,0.79907 -0.10278,1.6497 h -17.84004 q 0.25708,2.39769 1.18591,4.20253 0.92811,1.80455 2.44911,2.83567 1.52098,1.00548 3.58359,1.00548 1.6757,0 3.09362,-0.59285 1.44364,-0.59311 2.68116,-1.83047 l 2.62955,2.93892 q -1.46936,1.46956 -3.66076,2.44922 -2.16566,0.9538 -4.84683,0.9538 z m -7.16697,-15.88064 h 13.50908 q 0,-2.24297 -0.74769,-3.99612 -0.72185,-1.77893 -2.13979,-2.78422 -1.41793,-1.00549 -3.45463,-1.00549 -2.86158,0 -4.92399,1.85609 -2.03667,1.85627 -2.24298,5.92974 z m 35.98968,15.88064 q -1.95934,0 -3.55771,-0.69611 -1.59834,-0.69594 -3.19685,-2.19112 v 2.26846 h -4.48582 V 294.11422 L 650.94653,292 v 13.14837 q 1.23749,-1.36642 2.96481,-2.11422 1.75304,-0.77344 3.63506,-0.77344 3.35153,0 5.80065,1.67576 2.44914,1.67597 3.78974,4.76957 1.34057,3.09361 1.34057,7.3215 0,6.57396 -2.83588,10.209 -2.83586,3.60941 -7.94039,3.60941 z m -0.61878,-4.17647 q 3.29992,0 5.05295,-2.5005 1.7532,-2.50091 1.7532,-7.14144 0,-4.71785 -1.7532,-7.16681 -1.72732,-2.47487 -5.05295,-2.47487 -1.77875,0 -3.50608,1.00532 -1.72729,0.97959 -2.6297,2.50066 v 12.21997 q 0.97975,1.62424 2.60382,2.6039 1.64996,0.95377 3.53196,0.95377 z m 38.10368,4.17647 q -4.27969,0 -6.72883,-2.37191 -2.44911,-2.3716 -2.44911,-6.49659 0,-2.65535 1.21178,-4.61461 1.21165,-1.95953 3.42873,-3.01629 2.21707,-1.08283 5.2076,-1.08283 1.93363,0 3.60932,0.43817 1.70158,0.41263 3.19686,1.26342 v -1.85628 q 0,-3.06797 -1.3922,-4.48582 -1.39218,-1.44373 -4.33116,-1.44373 -1.88198,0 -3.91865,0.69611 -2.01078,0.6961 -3.76398,1.93342 l -1.28896,-3.76391 q 1.98506,-1.31484 4.51153,-2.0366 2.55238,-0.74779 5.02722,-0.74779 4.69215,0 7.03803,2.39766 2.34607,2.37191 2.34607,7.08976 v 17.47905 h -4.2279 v -2.42315 q -1.54688,1.46939 -3.48049,2.26847 -1.93347,0.77345 -3.99586,0.77345 z m 0.67017,-3.91862 q 1.83041,0 3.60932,-0.90224 1.80466,-0.90231 3.19686,-2.55219 v -4.53753 q -1.31485,-0.825 -2.99054,-1.28908 -1.67586,-0.46406 -3.19688,-0.46406 -2.88747,0 -4.56313,1.31486 -1.67569,1.28907 -1.67569,3.53188 0,2.26864 1.49529,3.5835 1.49525,1.31486 4.12477,1.31486 z m 19.49025,13.76667 v -36.81454 h 4.48568 v 2.21719 q 2.83584,-2.83594 6.75453,-2.83594 3.35151,0 5.77478,1.67576 2.44927,1.67597 3.764,4.76957 1.34057,3.09361 1.34057,7.3215 0,4.22815 -1.34057,7.34741 -1.34061,3.09364 -3.78974,4.79518 -2.4234,1.67582 -5.74904,1.67582 -2.08815,0 -3.76399,-0.74766 -1.67568,-0.77346 -2.99054,-2.34598 v 10.82774 z m 10.67305,-14.02452 q 3.32562,0 5.07868,-2.5005 1.7789,-2.50091 1.7789,-7.14144 0,-4.45989 -1.85624,-7.03801 -1.85612,-2.60367 -5.00134,-2.60367 -2.01096,0 -3.60932,0.92798 -1.5983,0.92814 -2.57808,2.62972 v 12.16825 q 1.3665,1.77892 2.91321,2.68125 1.54689,0.87642 3.27419,0.87642 z M 744.2206,339.694 v -36.81454 h 4.48585 v 2.21719 q 2.83584,-2.83594 6.75454,-2.83594 3.35137,0 5.7748,1.67576 2.44909,1.67597 3.76395,4.76957 1.3406,3.09361 1.3406,7.3215 0,4.22815 -1.3406,7.34741 -1.34057,3.09364 -3.78969,4.79518 -2.4234,1.67582 -5.74906,1.67582 -2.08832,0 -3.76401,-0.74766 -1.67569,-0.77346 -2.99053,-2.34598 v 10.82774 z m 10.67306,-14.02452 q 3.32584,0 5.07888,-2.5005 1.77874,-2.50091 1.77874,-7.14144 0,-4.45989 -1.85608,-7.03801 -1.85629,-2.60367 -5.00154,-2.60367 -2.01077,0 -3.60914,0.92798 -1.59848,0.92814 -2.57807,2.62972 v 12.16825 q 1.36631,1.77892 2.91318,2.68125 1.54674,0.87642 3.27403,0.87642 z m 25.72902,4.17647 q -2.78422,0 -5.36232,-1.1858 -2.55241,-1.21174 -4.17644,-3.24833 l 3.19666,-2.73298 q 1.39221,1.49546 3.09381,2.32035 1.70142,0.82498 3.3514,0.82498 2.32032,0 3.60926,-0.87642 1.28896,-0.90232 1.28896,-2.47485 0,-1.03141 -0.59283,-1.85627 -0.56717,-0.82501 -1.90773,-1.57281 -1.31486,-0.74738 -3.53198,-1.57252 -4.35682,-1.62408 -6.26476,-3.53205 -1.88196,-1.90756 -1.88196,-4.71769 0,-3.0938 2.44931,-5.02723 2.47487,-1.93362 6.41924,-1.93362 2.70693,0 4.97565,1.03138 2.26867,1.00549 3.89291,2.93908 l -3.09378,2.57784 q -2.37177,-2.52656 -5.82636,-2.52656 -2.03671,0 -3.22259,0.79935 -1.16002,0.77346 -1.16002,2.13976 0,1.31467 1.31471,2.32016 1.34057,0.9797 4.82107,2.26891 2.83584,1.03111 4.58892,2.24284 1.77874,1.21159 2.57805,2.75832 0.82491,1.54689 0.82491,3.55767 0,3.48053 -2.50072,5.49131 -2.50061,1.98518 -6.88337,1.98518 z"
     id="text1"
     aria-label="cybernetically enhanced web apps" /><g
     id="g2"
     transform="matrix(4.9194866,0,0,4.9194866,1489.9311,0.50456146)"
     style="stroke:#ff3e00;stroke-width:0.204719;stroke-dasharray:none;stroke-opacity:1"><path
       stroke="#000000"
       stroke-width="1"
       fill="none"
       d="M 87.269,14.819 C 76.869,-0.066 56.328,-4.478 41.477,4.984 L 15.4,21.608 A 29.921,29.921 0 0 0 1.876,41.651 31.514,31.514 0 0 0 4.984,61.882 30.006,30.006 0 0 0 0.507,73.065 31.892,31.892 0 0 0 5.955,97.181 c 10.4,14.887 30.942,19.3 45.791,9.835 L 77.829,90.392 A 29.915,29.915 0 0 0 91.347,70.349 31.522,31.522 0 0 0 88.247,50.117 30.019,30.019 0 0 0 92.721,38.935 31.878,31.878 0 0 0 87.274,14.819"
       id="path1"
       style="stroke:#ff3e00;stroke-width:0.204719;stroke-dasharray:none;stroke-opacity:1" /><path
       stroke="#000000"
       stroke-width="1"
       fill="none"
       d="m 38.929,98.582 a 20.72,20.72 0 0 1 -22.237,-8.243 19.176,19.176 0 0 1 -3.276,-14.5 18.143,18.143 0 0 1 0.623,-2.435 l 0.491,-1.5 1.337,0.981 a 33.633,33.633 0 0 0 10.2,5.1 l 0.969,0.294 -0.089,0.968 a 5.844,5.844 0 0 0 1.053,3.875 6.24,6.24 0 0 0 6.7,2.485 5.748,5.748 0 0 0 1.6,-0.7 L 62.382,68.281 a 5.43,5.43 0 0 0 2.451,-3.631 5.794,5.794 0 0 0 -0.988,-4.371 6.244,6.244 0 0 0 -6.7,-2.487 5.755,5.755 0 0 0 -1.6,0.7 l -9.953,6.345 a 19.06,19.06 0 0 1 -5.3,2.326 A 20.719,20.719 0 0 1 18.055,58.92 19.171,19.171 0 0 1 14.778,44.42 17.992,17.992 0 0 1 22.915,32.37 L 49,15.747 a 19.03,19.03 0 0 1 5.3,-2.329 20.72,20.72 0 0 1 22.237,8.243 19.176,19.176 0 0 1 3.277,14.5 18.453,18.453 0 0 1 -0.624,2.435 l -0.491,1.5 -1.336,-0.979 a 33.616,33.616 0 0 0 -10.2,-5.1 l -0.97,-0.294 0.09,-0.968 a 5.859,5.859 0 0 0 -1.052,-3.878 6.241,6.241 0 0 0 -6.7,-2.485 5.748,5.748 0 0 0 -1.6,0.7 L 30.842,43.719 a 5.421,5.421 0 0 0 -2.449,3.63 5.79,5.79 0 0 0 0.986,4.372 6.245,6.245 0 0 0 6.7,2.487 5.773,5.773 0 0 0 1.6,-0.7 l 9.952,-6.342 a 18.978,18.978 0 0 1 5.3,-2.328 20.718,20.718 0 0 1 22.236,8.243 19.171,19.171 0 0 1 3.277,14.5 18,18 0 0 1 -8.13,12.054 L 44.229,96.253 a 19.017,19.017 0 0 1 -5.3,2.329"
       id="path2"
       style="stroke:#ff3e00;stroke-width:0.204719;stroke-dasharray:none;stroke-opacity:1" /></g></svg>
