<svg xmlns="http://www.w3.org/2000/svg" xml:space="preserve" width="1949" height="552">
	<style>
		@media (prefers-color-scheme: dark) {
			#h1 {
				fill: #d9d9cc;
			}
			#h2 {
				fill: #d9d9cc;
			}
		}
		#h1 {
			fill: #4a4a55;
		}
		#h2 {
			fill: #565656;
		}
	</style>
	<path id="h1" d="M42.185 257.99a46.846 46.913 0 0 1-26.647-7.527A38.844 38.899 0 0 1 0 229.827l16.218-5.971a29.949 29.991 0 0 0 10.605 12.837 27.851 27.891 0 0 0 16.043 4.726 23.54 23.573 0 0 0 15.305-4.629 16.101 16.124 0 0 0 5.827-13.265 14.683 14.704 0 0 0-1.573-6.71 20.083 20.111 0 0 0-3.613-5.057 23.85 23.884 0 0 0-6.118-4.065q-4.137-2.062-6.875-3.15c-1.807-.72-4.487-1.693-8.022-2.899-4.409-1.556-7.769-2.762-9.925-3.656a73.513 73.617 0 0 1-8.7-4.376 32.008 32.053 0 0 1-8.1-6.147 29.502 29.544 0 0 1-4.972-8.071 28.745 28.786 0 0 1 7.77-32.656q9.982-8.733 26.996-8.733c9.498 0 17.286 2.1 23.423 6.282a30.454 30.497 0 0 1 12.333 16.746l-15.868 5.31a18.529 18.555 0 0 0-7.769-8.538 25.754 25.79 0 0 0-13.479-3.23 20.782 20.811 0 0 0-12.993 3.638 12.217 12.234 0 0 0-4.603 10.289 10.721 10.736 0 0 0 3.632 7.955 25.249 25.285 0 0 0 7.613 5.135c2.661 1.108 6.682 2.586 12.1 4.473 3.302 1.225 5.827 2.12 7.361 2.742 1.535.623 3.885 1.615 7.031 3.054a49.682 49.752 0 0 1 7.109 3.89 63.841 63.931 0 0 1 5.826 4.726 25.424 25.46 0 0 1 4.953 6.146 35.057 35.107 0 0 1 2.972 7.469 33.833 33.881 0 0 1 1.243 9.355q0 16.26-11.09 25.44t-28.473 9.103zm106.08-1.945-39.718-116.06h18.548l26.317 80.872a127.91 128.1 0 0 1 3.632 13.265 123.8 123.97 0 0 1 3.651-13.265l25.967-80.872h18.373l-39.544 116.02zm91.867 0v-116.06h71.862v16.241H257.34v31.82h35.251v16.241H257.34v35.398h58.266v16.241zm119.33 0v-116.06h17.208v99.446h56.616v16.571zm138.69-99.446v99.407h-17.208V156.56h-32.785v-16.571h82.758v16.571zm68.347 99.407v-116.02h71.862v16.241h-54.635v31.82h35.251v16.241h-35.251v35.398h58.267v16.241z" />
	<path id="h2" d="M12.931 329.85q-3.403 0-5.852-1.65-2.45-1.676-3.764-4.744Q2 320.363 2 316.083q0-4.305 1.34-7.399 1.341-3.094 3.816-4.743 2.5-1.676 5.981-1.676 3.403 0 5.775 1.573 2.372 1.572 3.455 4.563l-4.228 1.547q-.645-1.702-1.934-2.604-1.263-.903-3.016-.903-3.197 0-4.899 2.475-1.701 2.475-1.701 7.167 0 4.59 1.676 7.064 1.675 2.475 4.77 2.475 1.984 0 3.376-1.031 1.418-1.031 1.985-2.888l4.177 1.393q-.954 3.248-3.48 5-2.527 1.754-6.162 1.754zm19.928 9.384 4.022-10.673-9.745-25.677h4.486l6.548 17.943q.283.696.464 1.263.18.567.36 1.264.207-.697.388-1.264.18-.567.438-1.263l6.651-17.943h4.59l-13.665 36.35zm35.397-9.384q-1.96 0-3.558-.696-1.598-.696-3.196-2.191v2.268h-4.486v-35.113l4.486-2.114v13.148q1.237-1.366 2.964-2.114 1.753-.774 3.635-.774 3.352 0 5.8 1.676 2.45 1.676 3.79 4.77 1.341 3.093 1.341 7.321 0 6.574-2.836 10.21-2.836 3.609-7.94 3.609zm-.619-4.176q3.3 0 5.053-2.501 1.753-2.5 1.753-7.141 0-4.718-1.753-7.167-1.727-2.475-5.053-2.475-1.779 0-3.506 1.005-1.727.98-2.63 2.5v12.22q.98 1.625 2.604 2.605 1.65.954 3.532.954zm29.338 4.176q-3.609 0-6.239-1.779t-4.047-4.898q-1.418-3.12-1.418-7.141 0-4.357 1.47-7.425 1.469-3.094 4.099-4.718t6.135-1.624q2.965 0 5.44 1.34 2.475 1.316 3.944 4.1 1.496 2.758 1.496 7.09 0 .618-.052 1.443-.025.8-.103 1.65H89.86q.258 2.398 1.186 4.202.928 1.805 2.45 2.836 1.52 1.006 3.583 1.006 1.675 0 3.093-.593 1.444-.593 2.682-1.83l2.63 2.938q-1.47 1.47-3.662 2.45-2.165.953-4.846.953zm-7.167-15.881h13.51q0-2.243-.748-3.996-.722-1.779-2.14-2.784-1.418-1.006-3.455-1.006-2.861 0-4.924 1.856-2.037 1.857-2.243 5.93zm25.265 15.262v-26.348h4.486v3.455q.902-2.011 2.475-3.042 1.598-1.032 3.764-1.032 2.397 0 4.073 1.341l-.67 4.228q-.85-.593-1.779-.85-.902-.284-1.985-.284-1.779 0-3.094.954-1.315.953-2.062 2.68-.722 1.728-.722 4.048v14.85zm19.8 0v-26.348h4.485v2.681q1.212-1.675 2.913-2.475 1.702-.825 3.893-.825 4.795 0 7.115 2.914 2.32 2.887 2.32 8.894v15.159h-4.485v-15.932q0-3.326-1.495-5.105-1.47-1.804-4.177-1.804-3.016 0-4.563 1.727-1.521 1.701-1.521 5.079v16.035zm39.96.619q-3.61 0-6.24-1.779-2.63-1.779-4.047-4.898-1.418-3.12-1.418-7.142 0-4.356 1.47-7.424 1.469-3.094 4.099-4.718t6.135-1.624q2.965 0 5.44 1.34 2.475 1.315 3.944 4.1 1.496 2.758 1.496 7.09 0 .618-.052 1.443-.025.799-.103 1.65h-17.84q.258 2.397 1.186 4.202.928 1.805 2.45 2.836 1.52 1.005 3.583 1.005 1.675 0 3.093-.592 1.444-.594 2.682-1.831l2.63 2.939q-1.47 1.47-3.662 2.45-2.165.953-4.846.953zm-7.168-15.881h13.51q0-2.243-.748-3.996-.722-1.78-2.14-2.785-1.418-1.005-3.455-1.005-2.861 0-4.924 1.856-2.036 1.856-2.243 5.93zm31.555 15.88q-2.707 0-4.15-1.623-1.418-1.625-1.418-4.667v-16.757h-4.28v-3.918h4.28v-8.714l4.486-2.166v10.88h6.496v3.918h-6.496v15.262q0 1.882.644 2.758.67.851 2.088.851 1.805 0 3.919-1.392l-.516 4.383q-1.16.619-2.423.902-1.238.284-2.63.284zm11.19-.618v-26.348h4.485v26.348zm2.216-31.143q-1.16 0-1.985-.8-.799-.824-.799-1.984 0-1.212.8-2.037.824-.85 1.984-.85 1.212 0 2.011.85.825.825.825 2.037 0 1.16-.825 1.985-.799.799-2.01.799zm20.212 31.762q-3.403 0-5.852-1.65-2.449-1.676-3.764-4.744-1.315-3.093-1.315-7.373 0-4.305 1.341-7.399 1.34-3.094 3.816-4.743 2.5-1.676 5.98-1.676 3.404 0 5.775 1.573 2.372 1.572 3.455 4.563l-4.228 1.547q-.644-1.702-1.934-2.604-1.263-.903-3.016-.903-3.197 0-4.898 2.475-1.702 2.475-1.702 7.167 0 4.59 1.676 7.064 1.676 2.475 4.77 2.475 1.985 0 3.377-1.031 1.418-1.031 1.985-2.888l4.176 1.393q-.954 3.248-3.48 5-2.527 1.754-6.162 1.754zm23.512 0q-4.28 0-6.728-2.372-2.45-2.371-2.45-6.496 0-2.656 1.212-4.615 1.212-1.96 3.429-3.016 2.217-1.083 5.208-1.083 1.933 0 3.609.438 1.701.413 3.197 1.263v-1.856q0-3.068-1.392-4.486-1.393-1.443-4.332-1.443-1.882 0-3.918.696-2.011.696-3.764 1.933l-1.29-3.764q1.986-1.315 4.512-2.036 2.553-.748 5.028-.748 4.692 0 7.038 2.397 2.346 2.372 2.346 7.09v17.48h-4.228v-2.424q-1.547 1.47-3.48 2.269-1.934.773-3.997.773zm.67-3.919q1.831 0 3.61-.902 1.805-.902 3.197-2.552v-4.538q-1.315-.825-2.99-1.289-1.677-.464-3.198-.464-2.887 0-4.563 1.315-1.675 1.29-1.675 3.532 0 2.269 1.495 3.584 1.495 1.314 4.125 1.314zm19.079 3.3v-35.113l4.486-2.114v37.227zm13.509 0v-35.113l4.485-2.114v37.227zm16.37 10.003L310 328.561l-9.745-25.677h4.486l6.548 17.943q.284.696.464 1.264.18.567.361 1.263.206-.696.387-1.263.18-.568.438-1.264l6.652-17.943h4.589l-13.664 36.35zm46.432-9.384q-3.61 0-6.24-1.779-2.629-1.778-4.047-4.898-1.418-3.12-1.418-7.141 0-4.357 1.47-7.425 1.47-3.094 4.099-4.718 2.63-1.624 6.136-1.624 2.964 0 5.44 1.34 2.474 1.316 3.944 4.1 1.495 2.758 1.495 7.09 0 .618-.052 1.443-.024.8-.102 1.65h-17.84q.257 2.398 1.186 4.203.928 1.804 2.449 2.835 1.52 1.006 3.583 1.006 1.676 0 3.094-.593 1.444-.593 2.681-1.83l2.63 2.938q-1.47 1.47-3.661 2.45-2.166.953-4.847.953zm-7.167-15.88h13.509q0-2.244-.748-3.997-.722-1.779-2.14-2.784-1.418-1.006-3.454-1.006-2.862 0-4.924 1.857-2.037 1.856-2.243 5.93zm25.265 15.261v-26.348h4.486v2.682q1.211-1.676 2.913-2.475 1.701-.826 3.893-.826 4.795 0 7.115 2.914 2.32 2.887 2.32 8.894v15.16h-4.485v-15.933q0-3.326-1.496-5.105-1.47-1.804-4.176-1.804-3.017 0-4.563 1.727-1.521 1.702-1.521 5.08v16.034zm29.029 0v-35.165l4.485-2.062v13.612q1.212-1.676 2.914-2.501 1.727-.851 3.892-.851 3.43 0 5.492 1.418 2.088 1.418 3.016 4.073.928 2.63.928 6.317v15.159h-4.486v-15.932q0-3.094-1.392-5.002-1.366-1.907-4.28-1.907-3.016 0-4.563 1.727-1.52 1.701-1.52 5.079v16.035zm36.918.619q-4.28 0-6.729-2.372-2.45-2.372-2.45-6.497 0-2.655 1.212-4.614 1.212-1.96 3.43-3.016 2.216-1.083 5.207-1.083 1.933 0 3.61.438 1.7.413 3.196 1.263v-1.856q0-3.068-1.392-4.486-1.392-1.443-4.331-1.443-1.882 0-3.919.696-2.01.696-3.764 1.933l-1.289-3.764q1.985-1.315 4.512-2.036 2.552-.748 5.027-.748 4.692 0 7.038 2.397 2.346 2.372 2.346 7.09v17.48h-4.228v-2.424q-1.547 1.47-3.48 2.269-1.934.773-3.996.773zm.67-3.919q1.83 0 3.61-.902 1.804-.902 3.196-2.552v-4.538q-1.315-.825-2.99-1.289-1.676-.464-3.197-.464-2.888 0-4.563 1.315-1.676 1.29-1.676 3.532 0 2.269 1.495 3.584 1.495 1.314 4.125 1.314zm19.49 3.3v-26.348h4.486v2.681q1.211-1.675 2.913-2.474 1.702-.826 3.893-.826 4.795 0 7.115 2.914 2.32 2.887 2.32 8.894v15.159h-4.485v-15.932q0-3.326-1.496-5.105-1.469-1.804-4.176-1.804-3.016 0-4.563 1.727-1.521 1.702-1.521 5.079v16.035zm39.186.619q-3.403 0-5.852-1.65-2.45-1.676-3.764-4.744-1.315-3.093-1.315-7.373 0-4.305 1.34-7.399 1.341-3.094 3.816-4.744 2.5-1.675 5.981-1.675 3.403 0 5.775 1.572 2.372 1.573 3.455 4.564l-4.228 1.547q-.645-1.702-1.934-2.604-1.263-.903-3.016-.903-3.197 0-4.898 2.475-1.702 2.475-1.702 7.167 0 4.589 1.676 7.064 1.675 2.475 4.77 2.475 1.984 0 3.377-1.031 1.417-1.031 1.985-2.888l4.176 1.393q-.954 3.248-3.48 5-2.527 1.754-6.162 1.754zm26.967 0q-3.61 0-6.239-1.779-2.63-1.779-4.047-4.898-1.418-3.12-1.418-7.141 0-4.357 1.47-7.425 1.469-3.094 4.098-4.718 2.63-1.624 6.136-1.624 2.965 0 5.44 1.34 2.475 1.316 3.944 4.1 1.495 2.758 1.495 7.09 0 .618-.051 1.443-.025.8-.103 1.65h-17.84q.257 2.398 1.186 4.202.928 1.805 2.45 2.836 1.52 1.006 3.583 1.006 1.675 0 3.093-.593 1.444-.593 2.681-1.83l2.63 2.938q-1.47 1.47-3.66 2.45-2.166.953-4.847.953zm-7.167-15.881h13.509q0-2.243-.748-3.996-.722-1.78-2.14-2.784-1.417-1.006-3.454-1.006-2.862 0-4.924 1.856-2.037 1.857-2.243 5.93zm35.01 15.88q-5.027 0-7.966-3.711-2.913-3.738-2.913-10.106 0-4.228 1.315-7.322 1.34-3.094 3.763-4.77 2.45-1.675 5.801-1.675 3.867 0 6.651 2.475v-10.622l4.486-2.115v37.227h-4.486v-2.062q-2.603 2.681-6.651 2.681zm.619-4.176q1.856 0 3.428-.928 1.599-.928 2.604-2.63v-12.374q-1.005-1.547-2.604-2.45-1.598-.902-3.428-.902-3.326 0-5.156 2.5-1.805 2.502-1.805 7.142 0 2.862.877 5.027.876 2.166 2.449 3.403 1.572 1.212 3.635 1.212zm35.55 3.558-6.754-26.348h4.435l4.021 17.685q.18.722.31 1.444.154.696.257 1.34.129-.67.31-1.366.18-.722.36-1.418l4.95-17.685h3.712l4.95 17.685q.206.774.387 1.495.18.696.335 1.393.129-.67.257-1.393.129-.721.31-1.495l3.97-17.685h4.434l-6.755 26.348h-4.021l-4.796-15.623-.515-1.727-.464-1.728q-.18.774-.438 1.728t-.49 1.727l-4.744 15.623zm42.1.619q-3.61 0-6.239-1.779-2.63-1.779-4.048-4.898-1.417-3.12-1.417-7.141 0-4.357 1.469-7.425 1.47-3.094 4.1-4.718 2.629-1.624 6.135-1.624 2.965 0 5.44 1.34 2.474 1.316 3.944 4.1 1.495 2.758 1.495 7.09 0 .618-.051 1.443-.025.8-.103 1.65h-17.84q.257 2.398 1.186 4.202.928 1.805 2.449 2.836 1.52 1.006 3.584 1.006 1.675 0 3.093-.593 1.444-.593 2.681-1.83l2.63 2.938q-1.47 1.47-3.66 2.45-2.167.953-4.848.953zm-7.167-15.881h13.509q0-2.243-.748-3.996-.722-1.78-2.14-2.784-1.418-1.006-3.454-1.006-2.862 0-4.924 1.856-2.037 1.857-2.243 5.93zm35.99 15.88q-1.96 0-3.558-.695-1.598-.696-3.197-2.191v2.268h-4.486v-35.113l4.486-2.114v13.148q1.238-1.366 2.965-2.114 1.753-.774 3.635-.774 3.352 0 5.8 1.676 2.45 1.676 3.79 4.77 1.341 3.093 1.341 7.321 0 6.574-2.836 10.21-2.836 3.609-7.94 3.609zm-.619-4.176q3.3 0 5.053-2.5 1.753-2.501 1.753-7.141 0-4.718-1.753-7.167-1.727-2.475-5.053-2.475-1.779 0-3.506 1.005-1.727.98-2.63 2.5v12.22q.98 1.625 2.604 2.605 1.65.953 3.532.953zm38.104 4.177q-4.28 0-6.729-2.372t-2.449-6.497q0-2.655 1.212-4.614 1.212-1.96 3.429-3.016 2.217-1.083 5.207-1.083 1.934 0 3.61.438 1.701.413 3.196 1.263v-1.856q0-3.068-1.392-4.486-1.392-1.444-4.331-1.444-1.882 0-3.919.697-2.01.696-3.764 1.933l-1.289-3.764q1.986-1.315 4.512-2.037 2.552-.747 5.027-.747 4.692 0 7.038 2.397 2.346 2.372 2.346 7.09v17.48h-4.228v-2.424q-1.547 1.47-3.48 2.268-1.934.774-3.996.774zm.67-3.919q1.83 0 3.61-.902 1.804-.902 3.196-2.552v-4.538q-1.314-.825-2.99-1.289-1.676-.464-3.197-.464-2.888 0-4.563 1.315-1.676 1.29-1.676 3.532 0 2.269 1.495 3.584 1.496 1.314 4.125 1.314zm19.49 13.767v-36.815h4.486v2.218q2.836-2.836 6.754-2.836 3.352 0 5.775 1.675 2.45 1.676 3.764 4.77 1.34 3.094 1.34 7.322t-1.34 7.347q-1.34 3.094-3.79 4.795-2.423 1.676-5.749 1.676-2.088 0-3.764-.748-1.675-.773-2.99-2.346v10.828zm10.673-14.025q3.326 0 5.079-2.5 1.779-2.501 1.779-7.142 0-4.46-1.856-7.038-1.857-2.603-5.002-2.603-2.01 0-3.609.928-1.598.928-2.578 2.63v12.167q1.366 1.78 2.913 2.682 1.547.876 3.274.876zm18.201 14.025v-36.815h4.486v2.218q2.836-2.836 6.754-2.836 3.352 0 5.775 1.675 2.45 1.676 3.764 4.77 1.34 3.094 1.34 7.322t-1.34 7.347q-1.34 3.094-3.79 4.795-2.423 1.676-5.749 1.676-2.088 0-3.764-.748-1.675-.773-2.99-2.346v10.828zm10.673-14.025q3.326 0 5.08-2.5 1.778-2.501 1.778-7.142 0-4.46-1.856-7.038-1.857-2.603-5.002-2.603-2.01 0-3.609.928-1.598.928-2.578 2.63v12.167q1.366 1.78 2.913 2.682 1.547.876 3.274.876zm25.73 4.177q-2.785 0-5.363-1.186-2.553-1.212-4.177-3.248l3.197-2.733q1.392 1.495 3.094 2.32 1.701.825 3.351.825 2.32 0 3.61-.876 1.289-.903 1.289-2.475 0-1.032-.593-1.856-.567-.825-1.908-1.573-1.315-.748-3.532-1.573-4.357-1.624-6.265-3.532-1.882-1.907-1.882-4.717 0-3.094 2.45-5.028 2.475-1.933 6.419-1.933 2.707 0 4.975 1.031 2.27 1.006 3.893 2.94l-3.093 2.577q-2.372-2.527-5.827-2.527-2.037 0-3.222.8-1.16.773-1.16 2.14 0 1.314 1.314 2.32 1.34.98 4.821 2.269 2.836 1.03 4.59 2.243 1.778 1.211 2.577 2.758.825 1.547.825 3.558 0 3.48-2.5 5.49-2.501 1.986-6.884 1.986z" aria-label="cybernetically enhanced web apps" />
	<g fill="none" stroke-width="1" stroke="#ff3e00">
		<path d="M1919.22 73.407C1868.057.18 1767.006-21.525 1693.946 25.023l-128.286 81.782a147.196 147.196 0 0 0-66.531 98.602 155.033 155.033 0 0 0 15.29 99.526 147.615 147.615 0 0 0-22.025 55.015 156.893 156.893 0 0 0 26.802 118.638c51.162 73.237 152.219 94.947 225.268 48.384l128.316-81.782a147.167 147.167 0 0 0 66.502-98.602 155.072 155.072 0 0 0-15.25-99.53 147.678 147.678 0 0 0 22.009-55.01 156.824 156.824 0 0 0-26.797-118.64" />
		<path d="M1681.411 485.479a101.932 101.932 0 0 1-109.395-40.552 94.336 94.336 0 0 1-16.116-71.332 89.254 89.254 0 0 1 3.065-11.98l2.415-7.379 6.578 4.826a165.458 165.458 0 0 0 50.179 25.09l4.767 1.446-.438 4.762a28.75 28.75 0 0 0 5.18 19.063 30.698 30.698 0 0 0 32.96 12.225 28.277 28.277 0 0 0 7.872-3.443l128.31-81.792a26.713 26.713 0 0 0 12.058-17.863 28.504 28.504 0 0 0-4.86-21.503 30.717 30.717 0 0 0-32.961-12.235 28.312 28.312 0 0 0-7.871 3.444l-48.964 31.214a93.766 93.766 0 0 1-26.074 11.443 101.927 101.927 0 0 1-109.394-40.552 94.312 94.312 0 0 1-16.122-71.332 88.512 88.512 0 0 1 40.03-59.28l128.326-81.777a93.618 93.618 0 0 1 26.073-11.458 101.932 101.932 0 0 1 109.395 40.552 94.336 94.336 0 0 1 16.121 71.333 90.78 90.78 0 0 1-3.07 11.979l-2.415 7.379-6.573-4.816a165.374 165.374 0 0 0-50.179-25.09l-4.772-1.446.443-4.762a28.823 28.823 0 0 0-5.175-19.078 30.703 30.703 0 0 0-32.96-12.225 28.277 28.277 0 0 0-7.872 3.444l-128.345 81.796a26.669 26.669 0 0 0-12.048 17.858 28.484 28.484 0 0 0 4.851 21.508 30.722 30.722 0 0 0 32.96 12.235 28.4 28.4 0 0 0 7.872-3.444l48.959-31.2a93.362 93.362 0 0 1 26.073-11.452 101.922 101.922 0 0 1 109.39 40.552 94.312 94.312 0 0 1 16.121 71.332 88.551 88.551 0 0 1-39.995 59.3l-128.325 81.752a93.554 93.554 0 0 1-26.074 11.458" />
	</g>
</svg>
